<mxfile host="Electron" agent="Mozilla/5.0 (Windows NT 10.0; Win64; x64) AppleWebKit/537.36 (KHTML, like Gecko) draw.io/28.1.2 Chrome/138.0.7204.243 Electron/37.4.0 Safari/537.36" version="28.1.2">
  <diagram name="PÃ¡gina-1" id="c7oM9Rt4_WG62hvVwlf7">
    <mxGraphModel dx="2180" dy="1343" grid="1" gridSize="10" guides="1" tooltips="1" connect="1" arrows="1" fold="1" page="1" pageScale="1" pageWidth="1654" pageHeight="2336" math="0" shadow="0">
      <root>
        <mxCell id="0" />
        <mxCell id="1" parent="0" />
        <mxCell id="Hi8wWU0gHJnaGfF0Qscr-1" value="Pasajero" style="rounded=1;whiteSpace=wrap;html=1;" vertex="1" parent="1">
          <mxGeometry x="630" y="960" width="120" height="60" as="geometry" />
        </mxCell>
        <mxCell id="Hi8wWU0gHJnaGfF0Qscr-2" value="Avion" style="rounded=1;whiteSpace=wrap;html=1;" vertex="1" parent="1">
          <mxGeometry x="599" y="605" width="120" height="60" as="geometry" />
        </mxCell>
        <mxCell id="Hi8wWU0gHJnaGfF0Qscr-3" value="Vuelo" style="rounded=1;whiteSpace=wrap;html=1;" vertex="1" parent="1">
          <mxGeometry x="960" y="600" width="120" height="60" as="geometry" />
        </mxCell>
        <mxCell id="Hi8wWU0gHJnaGfF0Qscr-4" value="Reserva" style="rounded=1;whiteSpace=wrap;html=1;" vertex="1" parent="1">
          <mxGeometry x="970" y="960" width="120" height="60" as="geometry" />
        </mxCell>
        <mxCell id="Hi8wWU0gHJnaGfF0Qscr-5" value="&#xa;id_pasajero (PK)&#xa;&#xa;" style="ellipse;whiteSpace=wrap;html=1;" vertex="1" parent="1">
          <mxGeometry x="540" y="880" width="100" height="60" as="geometry" />
        </mxCell>
        <mxCell id="Hi8wWU0gHJnaGfF0Qscr-6" value="&#xa;nombre&#xa;&#xa;" style="ellipse;whiteSpace=wrap;html=1;" vertex="1" parent="1">
          <mxGeometry x="730" y="880" width="100" height="60" as="geometry" />
        </mxCell>
        <mxCell id="Hi8wWU0gHJnaGfF0Qscr-7" value="&#xa;documento&#xa;&#xa;" style="ellipse;whiteSpace=wrap;html=1;" vertex="1" parent="1">
          <mxGeometry x="540" y="1040" width="100" height="60" as="geometry" />
        </mxCell>
        <mxCell id="Hi8wWU0gHJnaGfF0Qscr-8" value="&#xa;correo&#xa;&#xa;" style="ellipse;whiteSpace=wrap;html=1;" vertex="1" parent="1">
          <mxGeometry x="730" y="1040" width="100" height="60" as="geometry" />
        </mxCell>
        <mxCell id="Hi8wWU0gHJnaGfF0Qscr-9" value="&#xa;id_avion (PK)&#xa;&#xa;" style="ellipse;whiteSpace=wrap;html=1;" vertex="1" parent="1">
          <mxGeometry x="545" y="525" width="100" height="60" as="geometry" />
        </mxCell>
        <mxCell id="Hi8wWU0gHJnaGfF0Qscr-10" value="&#xa;modelo&#xa;&#xa;" style="ellipse;whiteSpace=wrap;html=1;" vertex="1" parent="1">
          <mxGeometry x="675" y="525" width="100" height="60" as="geometry" />
        </mxCell>
        <mxCell id="Hi8wWU0gHJnaGfF0Qscr-11" value="&#xa;capacidad&#xa;&#xa;" style="ellipse;whiteSpace=wrap;html=1;" vertex="1" parent="1">
          <mxGeometry x="607" y="695" width="104" height="60" as="geometry" />
        </mxCell>
        <mxCell id="Hi8wWU0gHJnaGfF0Qscr-13" value="&#xa;id_vuelo (PK)&#xa;&#xa;" style="ellipse;whiteSpace=wrap;html=1;" vertex="1" parent="1">
          <mxGeometry x="900" y="520" width="100" height="60" as="geometry" />
        </mxCell>
        <mxCell id="Hi8wWU0gHJnaGfF0Qscr-14" value="&#xa;origen&#xa;&#xa;" style="ellipse;whiteSpace=wrap;html=1;" vertex="1" parent="1">
          <mxGeometry x="1040" y="520" width="100" height="60" as="geometry" />
        </mxCell>
        <mxCell id="Hi8wWU0gHJnaGfF0Qscr-15" value="&#xa;destino&#xa;&#xa;" style="ellipse;whiteSpace=wrap;html=1;" vertex="1" parent="1">
          <mxGeometry x="900" y="670" width="100" height="60" as="geometry" />
        </mxCell>
        <mxCell id="Hi8wWU0gHJnaGfF0Qscr-16" value="&#xa;fecha&#xa;&#xa;" style="ellipse;whiteSpace=wrap;html=1;" vertex="1" parent="1">
          <mxGeometry x="1040" y="670" width="100" height="60" as="geometry" />
        </mxCell>
        <mxCell id="Hi8wWU0gHJnaGfF0Qscr-17" value="&#xa;hora&#xa;&#xa;" style="ellipse;whiteSpace=wrap;html=1;" vertex="1" parent="1">
          <mxGeometry x="975" y="430" width="90" height="60" as="geometry" />
        </mxCell>
        <mxCell id="Hi8wWU0gHJnaGfF0Qscr-18" value="&#xa;id_avion (FK)&#xa;&#xa;" style="ellipse;whiteSpace=wrap;html=1;" vertex="1" parent="1">
          <mxGeometry x="1150" y="600" width="100" height="60" as="geometry" />
        </mxCell>
        <mxCell id="Hi8wWU0gHJnaGfF0Qscr-19" value="&#xa;id_reserva (PK)&#xa;&#xa;" style="ellipse;whiteSpace=wrap;html=1;" vertex="1" parent="1">
          <mxGeometry x="900" y="880" width="100" height="60" as="geometry" />
        </mxCell>
        <mxCell id="Hi8wWU0gHJnaGfF0Qscr-20" value="&#xa;fecha_reserva&#xa;&#xa;" style="ellipse;whiteSpace=wrap;html=1;" vertex="1" parent="1">
          <mxGeometry x="1060" y="880" width="100" height="60" as="geometry" />
        </mxCell>
        <mxCell id="Hi8wWU0gHJnaGfF0Qscr-21" value="&#xa;id_pasajero (FK)&#xa;&#xa;" style="ellipse;whiteSpace=wrap;html=1;" vertex="1" parent="1">
          <mxGeometry x="900" y="1040" width="100" height="60" as="geometry" />
        </mxCell>
        <mxCell id="Hi8wWU0gHJnaGfF0Qscr-22" value="&#xa;id_vuelo (FK)&#xa;&#xa;" style="ellipse;whiteSpace=wrap;html=1;" vertex="1" parent="1">
          <mxGeometry x="1060" y="1040" width="100" height="60" as="geometry" />
        </mxCell>
        <mxCell id="Hi8wWU0gHJnaGfF0Qscr-23" value="Opera" style="rhombus;whiteSpace=wrap;html=1;" vertex="1" parent="1">
          <mxGeometry x="790" y="595" width="80" height="80" as="geometry" />
        </mxCell>
        <mxCell id="Hi8wWU0gHJnaGfF0Qscr-24" value="1:N" style="text;html=1;align=center;verticalAlign=middle;whiteSpace=wrap;rounded=0;" vertex="1" parent="1">
          <mxGeometry x="800" y="555" width="60" height="30" as="geometry" />
        </mxCell>
        <mxCell id="Hi8wWU0gHJnaGfF0Qscr-25" value="Reserva" style="rhombus;whiteSpace=wrap;html=1;" vertex="1" parent="1">
          <mxGeometry x="830" y="950" width="80" height="80" as="geometry" />
        </mxCell>
        <mxCell id="Hi8wWU0gHJnaGfF0Qscr-26" value="Reserva" style="rhombus;whiteSpace=wrap;html=1;" vertex="1" parent="1">
          <mxGeometry x="985" y="755" width="80" height="80" as="geometry" />
        </mxCell>
        <mxCell id="Hi8wWU0gHJnaGfF0Qscr-27" value="N:M" style="text;html=1;align=center;verticalAlign=middle;whiteSpace=wrap;rounded=0;" vertex="1" parent="1">
          <mxGeometry x="840" y="920" width="60" height="30" as="geometry" />
        </mxCell>
        <mxCell id="Hi8wWU0gHJnaGfF0Qscr-28" value="N:M" style="text;html=1;align=center;verticalAlign=middle;whiteSpace=wrap;rounded=0;" vertex="1" parent="1">
          <mxGeometry x="930" y="780" width="60" height="30" as="geometry" />
        </mxCell>
        <mxCell id="Hi8wWU0gHJnaGfF0Qscr-29" value="" style="endArrow=classic;html=1;rounded=0;" edge="1" parent="1" source="Hi8wWU0gHJnaGfF0Qscr-2" target="Hi8wWU0gHJnaGfF0Qscr-23">
          <mxGeometry width="50" height="50" relative="1" as="geometry">
            <mxPoint x="1090" y="850" as="sourcePoint" />
            <mxPoint x="1140" y="800" as="targetPoint" />
          </mxGeometry>
        </mxCell>
        <mxCell id="Hi8wWU0gHJnaGfF0Qscr-30" value="" style="endArrow=classic;html=1;rounded=0;" edge="1" parent="1" source="Hi8wWU0gHJnaGfF0Qscr-23" target="Hi8wWU0gHJnaGfF0Qscr-3">
          <mxGeometry width="50" height="50" relative="1" as="geometry">
            <mxPoint x="1090" y="850" as="sourcePoint" />
            <mxPoint x="1140" y="800" as="targetPoint" />
          </mxGeometry>
        </mxCell>
        <mxCell id="Hi8wWU0gHJnaGfF0Qscr-31" value="" style="endArrow=classic;html=1;rounded=0;" edge="1" parent="1" source="Hi8wWU0gHJnaGfF0Qscr-1" target="Hi8wWU0gHJnaGfF0Qscr-25">
          <mxGeometry width="50" height="50" relative="1" as="geometry">
            <mxPoint x="750" y="990" as="sourcePoint" />
            <mxPoint x="1140" y="800" as="targetPoint" />
          </mxGeometry>
        </mxCell>
        <mxCell id="Hi8wWU0gHJnaGfF0Qscr-32" value="" style="endArrow=classic;html=1;rounded=0;" edge="1" parent="1" source="Hi8wWU0gHJnaGfF0Qscr-25" target="Hi8wWU0gHJnaGfF0Qscr-4">
          <mxGeometry width="50" height="50" relative="1" as="geometry">
            <mxPoint x="1090" y="850" as="sourcePoint" />
            <mxPoint x="1140" y="800" as="targetPoint" />
          </mxGeometry>
        </mxCell>
        <mxCell id="Hi8wWU0gHJnaGfF0Qscr-33" value="" style="endArrow=classic;html=1;rounded=0;" edge="1" parent="1" source="Hi8wWU0gHJnaGfF0Qscr-4" target="Hi8wWU0gHJnaGfF0Qscr-26">
          <mxGeometry width="50" height="50" relative="1" as="geometry">
            <mxPoint x="1090" y="850" as="sourcePoint" />
            <mxPoint x="1140" y="800" as="targetPoint" />
          </mxGeometry>
        </mxCell>
        <mxCell id="Hi8wWU0gHJnaGfF0Qscr-34" value="" style="endArrow=classic;html=1;rounded=0;" edge="1" parent="1" source="Hi8wWU0gHJnaGfF0Qscr-26" target="Hi8wWU0gHJnaGfF0Qscr-3">
          <mxGeometry width="50" height="50" relative="1" as="geometry">
            <mxPoint x="1090" y="850" as="sourcePoint" />
            <mxPoint x="1140" y="800" as="targetPoint" />
          </mxGeometry>
        </mxCell>
        <mxCell id="Hi8wWU0gHJnaGfF0Qscr-35" value="Pasajero" style="shape=table;startSize=30;container=1;collapsible=1;childLayout=tableLayout;fixedRows=1;rowLines=0;fontStyle=1;align=center;resizeLast=1;html=1;whiteSpace=wrap;" vertex="1" parent="1">
          <mxGeometry x="567" y="1792" width="180" height="150" as="geometry" />
        </mxCell>
        <mxCell id="Hi8wWU0gHJnaGfF0Qscr-36" value="" style="shape=tableRow;horizontal=0;startSize=0;swimlaneHead=0;swimlaneBody=0;fillColor=none;collapsible=0;dropTarget=0;points=[[0,0.5],[1,0.5]];portConstraint=eastwest;top=0;left=0;right=0;bottom=0;html=1;" vertex="1" parent="Hi8wWU0gHJnaGfF0Qscr-35">
          <mxGeometry y="30" width="180" height="30" as="geometry" />
        </mxCell>
        <mxCell id="Hi8wWU0gHJnaGfF0Qscr-37" value="PK" style="shape=partialRectangle;connectable=0;fillColor=none;top=0;left=0;bottom=0;right=0;fontStyle=1;overflow=hidden;html=1;whiteSpace=wrap;" vertex="1" parent="Hi8wWU0gHJnaGfF0Qscr-36">
          <mxGeometry width="60" height="30" as="geometry">
            <mxRectangle width="60" height="30" as="alternateBounds" />
          </mxGeometry>
        </mxCell>
        <mxCell id="Hi8wWU0gHJnaGfF0Qscr-38" value="id_pasajero" style="shape=partialRectangle;connectable=0;fillColor=none;top=0;left=0;bottom=0;right=0;align=left;spacingLeft=6;fontStyle=5;overflow=hidden;html=1;whiteSpace=wrap;" vertex="1" parent="Hi8wWU0gHJnaGfF0Qscr-36">
          <mxGeometry x="60" width="120" height="30" as="geometry">
            <mxRectangle width="120" height="30" as="alternateBounds" />
          </mxGeometry>
        </mxCell>
        <mxCell id="Hi8wWU0gHJnaGfF0Qscr-42" value="" style="shape=tableRow;horizontal=0;startSize=0;swimlaneHead=0;swimlaneBody=0;fillColor=none;collapsible=0;dropTarget=0;points=[[0,0.5],[1,0.5]];portConstraint=eastwest;top=0;left=0;right=0;bottom=0;html=1;" vertex="1" parent="Hi8wWU0gHJnaGfF0Qscr-35">
          <mxGeometry y="60" width="180" height="30" as="geometry" />
        </mxCell>
        <mxCell id="Hi8wWU0gHJnaGfF0Qscr-43" value="" style="shape=partialRectangle;connectable=0;fillColor=none;top=0;left=0;bottom=0;right=0;editable=1;overflow=hidden;html=1;whiteSpace=wrap;" vertex="1" parent="Hi8wWU0gHJnaGfF0Qscr-42">
          <mxGeometry width="60" height="30" as="geometry">
            <mxRectangle width="60" height="30" as="alternateBounds" />
          </mxGeometry>
        </mxCell>
        <mxCell id="Hi8wWU0gHJnaGfF0Qscr-44" value="nombre" style="shape=partialRectangle;connectable=0;fillColor=none;top=0;left=0;bottom=0;right=0;align=left;spacingLeft=6;overflow=hidden;html=1;whiteSpace=wrap;" vertex="1" parent="Hi8wWU0gHJnaGfF0Qscr-42">
          <mxGeometry x="60" width="120" height="30" as="geometry">
            <mxRectangle width="120" height="30" as="alternateBounds" />
          </mxGeometry>
        </mxCell>
        <mxCell id="Hi8wWU0gHJnaGfF0Qscr-45" value="" style="shape=tableRow;horizontal=0;startSize=0;swimlaneHead=0;swimlaneBody=0;fillColor=none;collapsible=0;dropTarget=0;points=[[0,0.5],[1,0.5]];portConstraint=eastwest;top=0;left=0;right=0;bottom=0;html=1;" vertex="1" parent="Hi8wWU0gHJnaGfF0Qscr-35">
          <mxGeometry y="90" width="180" height="30" as="geometry" />
        </mxCell>
        <mxCell id="Hi8wWU0gHJnaGfF0Qscr-46" value="" style="shape=partialRectangle;connectable=0;fillColor=none;top=0;left=0;bottom=0;right=0;editable=1;overflow=hidden;html=1;whiteSpace=wrap;" vertex="1" parent="Hi8wWU0gHJnaGfF0Qscr-45">
          <mxGeometry width="60" height="30" as="geometry">
            <mxRectangle width="60" height="30" as="alternateBounds" />
          </mxGeometry>
        </mxCell>
        <mxCell id="Hi8wWU0gHJnaGfF0Qscr-47" value="documento" style="shape=partialRectangle;connectable=0;fillColor=none;top=0;left=0;bottom=0;right=0;align=left;spacingLeft=6;overflow=hidden;html=1;whiteSpace=wrap;" vertex="1" parent="Hi8wWU0gHJnaGfF0Qscr-45">
          <mxGeometry x="60" width="120" height="30" as="geometry">
            <mxRectangle width="120" height="30" as="alternateBounds" />
          </mxGeometry>
        </mxCell>
        <mxCell id="Hi8wWU0gHJnaGfF0Qscr-48" value="" style="shape=tableRow;horizontal=0;startSize=0;swimlaneHead=0;swimlaneBody=0;fillColor=none;collapsible=0;dropTarget=0;points=[[0,0.5],[1,0.5]];portConstraint=eastwest;top=0;left=0;right=0;bottom=0;html=1;" vertex="1" parent="Hi8wWU0gHJnaGfF0Qscr-35">
          <mxGeometry y="120" width="180" height="30" as="geometry" />
        </mxCell>
        <mxCell id="Hi8wWU0gHJnaGfF0Qscr-49" value="" style="shape=partialRectangle;connectable=0;fillColor=none;top=0;left=0;bottom=0;right=0;editable=1;overflow=hidden;html=1;whiteSpace=wrap;" vertex="1" parent="Hi8wWU0gHJnaGfF0Qscr-48">
          <mxGeometry width="60" height="30" as="geometry">
            <mxRectangle width="60" height="30" as="alternateBounds" />
          </mxGeometry>
        </mxCell>
        <mxCell id="Hi8wWU0gHJnaGfF0Qscr-50" value="correo" style="shape=partialRectangle;connectable=0;fillColor=none;top=0;left=0;bottom=0;right=0;align=left;spacingLeft=6;overflow=hidden;html=1;whiteSpace=wrap;" vertex="1" parent="Hi8wWU0gHJnaGfF0Qscr-48">
          <mxGeometry x="60" width="120" height="30" as="geometry">
            <mxRectangle width="120" height="30" as="alternateBounds" />
          </mxGeometry>
        </mxCell>
        <mxCell id="Hi8wWU0gHJnaGfF0Qscr-51" value="Avion" style="shape=table;startSize=30;container=1;collapsible=1;childLayout=tableLayout;fixedRows=1;rowLines=0;fontStyle=1;align=center;resizeLast=1;html=1;" vertex="1" parent="1">
          <mxGeometry x="577" y="1540" width="180" height="120" as="geometry" />
        </mxCell>
        <mxCell id="Hi8wWU0gHJnaGfF0Qscr-52" value="" style="shape=tableRow;horizontal=0;startSize=0;swimlaneHead=0;swimlaneBody=0;fillColor=none;collapsible=0;dropTarget=0;points=[[0,0.5],[1,0.5]];portConstraint=eastwest;top=0;left=0;right=0;bottom=1;" vertex="1" parent="Hi8wWU0gHJnaGfF0Qscr-51">
          <mxGeometry y="30" width="180" height="30" as="geometry" />
        </mxCell>
        <mxCell id="Hi8wWU0gHJnaGfF0Qscr-53" value="PK" style="shape=partialRectangle;connectable=0;fillColor=none;top=0;left=0;bottom=0;right=0;fontStyle=1;overflow=hidden;whiteSpace=wrap;html=1;" vertex="1" parent="Hi8wWU0gHJnaGfF0Qscr-52">
          <mxGeometry width="30" height="30" as="geometry">
            <mxRectangle width="30" height="30" as="alternateBounds" />
          </mxGeometry>
        </mxCell>
        <mxCell id="Hi8wWU0gHJnaGfF0Qscr-54" value="id_avion" style="shape=partialRectangle;connectable=0;fillColor=none;top=0;left=0;bottom=0;right=0;align=left;spacingLeft=6;fontStyle=5;overflow=hidden;whiteSpace=wrap;html=1;" vertex="1" parent="Hi8wWU0gHJnaGfF0Qscr-52">
          <mxGeometry x="30" width="150" height="30" as="geometry">
            <mxRectangle width="150" height="30" as="alternateBounds" />
          </mxGeometry>
        </mxCell>
        <mxCell id="Hi8wWU0gHJnaGfF0Qscr-55" value="" style="shape=tableRow;horizontal=0;startSize=0;swimlaneHead=0;swimlaneBody=0;fillColor=none;collapsible=0;dropTarget=0;points=[[0,0.5],[1,0.5]];portConstraint=eastwest;top=0;left=0;right=0;bottom=0;" vertex="1" parent="Hi8wWU0gHJnaGfF0Qscr-51">
          <mxGeometry y="60" width="180" height="30" as="geometry" />
        </mxCell>
        <mxCell id="Hi8wWU0gHJnaGfF0Qscr-56" value="" style="shape=partialRectangle;connectable=0;fillColor=none;top=0;left=0;bottom=0;right=0;editable=1;overflow=hidden;whiteSpace=wrap;html=1;" vertex="1" parent="Hi8wWU0gHJnaGfF0Qscr-55">
          <mxGeometry width="30" height="30" as="geometry">
            <mxRectangle width="30" height="30" as="alternateBounds" />
          </mxGeometry>
        </mxCell>
        <mxCell id="Hi8wWU0gHJnaGfF0Qscr-57" value="modelo" style="shape=partialRectangle;connectable=0;fillColor=none;top=0;left=0;bottom=0;right=0;align=left;spacingLeft=6;overflow=hidden;whiteSpace=wrap;html=1;" vertex="1" parent="Hi8wWU0gHJnaGfF0Qscr-55">
          <mxGeometry x="30" width="150" height="30" as="geometry">
            <mxRectangle width="150" height="30" as="alternateBounds" />
          </mxGeometry>
        </mxCell>
        <mxCell id="Hi8wWU0gHJnaGfF0Qscr-58" value="" style="shape=tableRow;horizontal=0;startSize=0;swimlaneHead=0;swimlaneBody=0;fillColor=none;collapsible=0;dropTarget=0;points=[[0,0.5],[1,0.5]];portConstraint=eastwest;top=0;left=0;right=0;bottom=0;" vertex="1" parent="Hi8wWU0gHJnaGfF0Qscr-51">
          <mxGeometry y="90" width="180" height="30" as="geometry" />
        </mxCell>
        <mxCell id="Hi8wWU0gHJnaGfF0Qscr-59" value="" style="shape=partialRectangle;connectable=0;fillColor=none;top=0;left=0;bottom=0;right=0;editable=1;overflow=hidden;whiteSpace=wrap;html=1;" vertex="1" parent="Hi8wWU0gHJnaGfF0Qscr-58">
          <mxGeometry width="30" height="30" as="geometry">
            <mxRectangle width="30" height="30" as="alternateBounds" />
          </mxGeometry>
        </mxCell>
        <mxCell id="Hi8wWU0gHJnaGfF0Qscr-60" value="capacidad" style="shape=partialRectangle;connectable=0;fillColor=none;top=0;left=0;bottom=0;right=0;align=left;spacingLeft=6;overflow=hidden;whiteSpace=wrap;html=1;" vertex="1" parent="Hi8wWU0gHJnaGfF0Qscr-58">
          <mxGeometry x="30" width="150" height="30" as="geometry">
            <mxRectangle width="150" height="30" as="alternateBounds" />
          </mxGeometry>
        </mxCell>
        <mxCell id="Hi8wWU0gHJnaGfF0Qscr-64" value="Vuelo" style="shape=table;startSize=30;container=1;collapsible=1;childLayout=tableLayout;fixedRows=1;rowLines=0;fontStyle=1;align=center;resizeLast=1;html=1;" vertex="1" parent="1">
          <mxGeometry x="867" y="1540" width="180" height="210" as="geometry" />
        </mxCell>
        <mxCell id="Hi8wWU0gHJnaGfF0Qscr-80" value="" style="shape=tableRow;horizontal=0;startSize=0;swimlaneHead=0;swimlaneBody=0;fillColor=none;collapsible=0;dropTarget=0;points=[[0,0.5],[1,0.5]];portConstraint=eastwest;top=0;left=0;right=0;bottom=1;" vertex="1" parent="Hi8wWU0gHJnaGfF0Qscr-64">
          <mxGeometry y="30" width="180" height="30" as="geometry" />
        </mxCell>
        <mxCell id="Hi8wWU0gHJnaGfF0Qscr-81" value="PK" style="shape=partialRectangle;connectable=0;fillColor=none;top=0;left=0;bottom=0;right=0;fontStyle=1;overflow=hidden;whiteSpace=wrap;html=1;" vertex="1" parent="Hi8wWU0gHJnaGfF0Qscr-80">
          <mxGeometry width="30" height="30" as="geometry">
            <mxRectangle width="30" height="30" as="alternateBounds" />
          </mxGeometry>
        </mxCell>
        <mxCell id="Hi8wWU0gHJnaGfF0Qscr-82" value="id_vuelo" style="shape=partialRectangle;connectable=0;fillColor=none;top=0;left=0;bottom=0;right=0;align=left;spacingLeft=6;fontStyle=5;overflow=hidden;whiteSpace=wrap;html=1;" vertex="1" parent="Hi8wWU0gHJnaGfF0Qscr-80">
          <mxGeometry x="30" width="150" height="30" as="geometry">
            <mxRectangle width="150" height="30" as="alternateBounds" />
          </mxGeometry>
        </mxCell>
        <mxCell id="Hi8wWU0gHJnaGfF0Qscr-65" value="" style="shape=tableRow;horizontal=0;startSize=0;swimlaneHead=0;swimlaneBody=0;fillColor=none;collapsible=0;dropTarget=0;points=[[0,0.5],[1,0.5]];portConstraint=eastwest;top=0;left=0;right=0;bottom=1;" vertex="1" parent="Hi8wWU0gHJnaGfF0Qscr-64">
          <mxGeometry y="60" width="180" height="30" as="geometry" />
        </mxCell>
        <mxCell id="Hi8wWU0gHJnaGfF0Qscr-66" value="FK" style="shape=partialRectangle;connectable=0;fillColor=none;top=0;left=0;bottom=0;right=0;fontStyle=1;overflow=hidden;whiteSpace=wrap;html=1;" vertex="1" parent="Hi8wWU0gHJnaGfF0Qscr-65">
          <mxGeometry width="30" height="30" as="geometry">
            <mxRectangle width="30" height="30" as="alternateBounds" />
          </mxGeometry>
        </mxCell>
        <mxCell id="Hi8wWU0gHJnaGfF0Qscr-67" value="id_avion" style="shape=partialRectangle;connectable=0;fillColor=none;top=0;left=0;bottom=0;right=0;align=left;spacingLeft=6;fontStyle=5;overflow=hidden;whiteSpace=wrap;html=1;" vertex="1" parent="Hi8wWU0gHJnaGfF0Qscr-65">
          <mxGeometry x="30" width="150" height="30" as="geometry">
            <mxRectangle width="150" height="30" as="alternateBounds" />
          </mxGeometry>
        </mxCell>
        <mxCell id="Hi8wWU0gHJnaGfF0Qscr-68" value="" style="shape=tableRow;horizontal=0;startSize=0;swimlaneHead=0;swimlaneBody=0;fillColor=none;collapsible=0;dropTarget=0;points=[[0,0.5],[1,0.5]];portConstraint=eastwest;top=0;left=0;right=0;bottom=0;" vertex="1" parent="Hi8wWU0gHJnaGfF0Qscr-64">
          <mxGeometry y="90" width="180" height="30" as="geometry" />
        </mxCell>
        <mxCell id="Hi8wWU0gHJnaGfF0Qscr-69" value="" style="shape=partialRectangle;connectable=0;fillColor=none;top=0;left=0;bottom=0;right=0;editable=1;overflow=hidden;whiteSpace=wrap;html=1;" vertex="1" parent="Hi8wWU0gHJnaGfF0Qscr-68">
          <mxGeometry width="30" height="30" as="geometry">
            <mxRectangle width="30" height="30" as="alternateBounds" />
          </mxGeometry>
        </mxCell>
        <mxCell id="Hi8wWU0gHJnaGfF0Qscr-70" value="origen" style="shape=partialRectangle;connectable=0;fillColor=none;top=0;left=0;bottom=0;right=0;align=left;spacingLeft=6;overflow=hidden;whiteSpace=wrap;html=1;" vertex="1" parent="Hi8wWU0gHJnaGfF0Qscr-68">
          <mxGeometry x="30" width="150" height="30" as="geometry">
            <mxRectangle width="150" height="30" as="alternateBounds" />
          </mxGeometry>
        </mxCell>
        <mxCell id="Hi8wWU0gHJnaGfF0Qscr-71" value="" style="shape=tableRow;horizontal=0;startSize=0;swimlaneHead=0;swimlaneBody=0;fillColor=none;collapsible=0;dropTarget=0;points=[[0,0.5],[1,0.5]];portConstraint=eastwest;top=0;left=0;right=0;bottom=0;" vertex="1" parent="Hi8wWU0gHJnaGfF0Qscr-64">
          <mxGeometry y="120" width="180" height="30" as="geometry" />
        </mxCell>
        <mxCell id="Hi8wWU0gHJnaGfF0Qscr-72" value="" style="shape=partialRectangle;connectable=0;fillColor=none;top=0;left=0;bottom=0;right=0;editable=1;overflow=hidden;whiteSpace=wrap;html=1;" vertex="1" parent="Hi8wWU0gHJnaGfF0Qscr-71">
          <mxGeometry width="30" height="30" as="geometry">
            <mxRectangle width="30" height="30" as="alternateBounds" />
          </mxGeometry>
        </mxCell>
        <mxCell id="Hi8wWU0gHJnaGfF0Qscr-73" value="destino" style="shape=partialRectangle;connectable=0;fillColor=none;top=0;left=0;bottom=0;right=0;align=left;spacingLeft=6;overflow=hidden;whiteSpace=wrap;html=1;" vertex="1" parent="Hi8wWU0gHJnaGfF0Qscr-71">
          <mxGeometry x="30" width="150" height="30" as="geometry">
            <mxRectangle width="150" height="30" as="alternateBounds" />
          </mxGeometry>
        </mxCell>
        <mxCell id="Hi8wWU0gHJnaGfF0Qscr-74" value="" style="shape=tableRow;horizontal=0;startSize=0;swimlaneHead=0;swimlaneBody=0;fillColor=none;collapsible=0;dropTarget=0;points=[[0,0.5],[1,0.5]];portConstraint=eastwest;top=0;left=0;right=0;bottom=0;" vertex="1" parent="Hi8wWU0gHJnaGfF0Qscr-64">
          <mxGeometry y="150" width="180" height="30" as="geometry" />
        </mxCell>
        <mxCell id="Hi8wWU0gHJnaGfF0Qscr-75" value="" style="shape=partialRectangle;connectable=0;fillColor=none;top=0;left=0;bottom=0;right=0;editable=1;overflow=hidden;whiteSpace=wrap;html=1;" vertex="1" parent="Hi8wWU0gHJnaGfF0Qscr-74">
          <mxGeometry width="30" height="30" as="geometry">
            <mxRectangle width="30" height="30" as="alternateBounds" />
          </mxGeometry>
        </mxCell>
        <mxCell id="Hi8wWU0gHJnaGfF0Qscr-76" value="fecha" style="shape=partialRectangle;connectable=0;fillColor=none;top=0;left=0;bottom=0;right=0;align=left;spacingLeft=6;overflow=hidden;whiteSpace=wrap;html=1;" vertex="1" parent="Hi8wWU0gHJnaGfF0Qscr-74">
          <mxGeometry x="30" width="150" height="30" as="geometry">
            <mxRectangle width="150" height="30" as="alternateBounds" />
          </mxGeometry>
        </mxCell>
        <mxCell id="Hi8wWU0gHJnaGfF0Qscr-77" value="" style="shape=tableRow;horizontal=0;startSize=0;swimlaneHead=0;swimlaneBody=0;fillColor=none;collapsible=0;dropTarget=0;points=[[0,0.5],[1,0.5]];portConstraint=eastwest;top=0;left=0;right=0;bottom=0;" vertex="1" parent="Hi8wWU0gHJnaGfF0Qscr-64">
          <mxGeometry y="180" width="180" height="30" as="geometry" />
        </mxCell>
        <mxCell id="Hi8wWU0gHJnaGfF0Qscr-78" value="" style="shape=partialRectangle;connectable=0;fillColor=none;top=0;left=0;bottom=0;right=0;editable=1;overflow=hidden;whiteSpace=wrap;html=1;" vertex="1" parent="Hi8wWU0gHJnaGfF0Qscr-77">
          <mxGeometry width="30" height="30" as="geometry">
            <mxRectangle width="30" height="30" as="alternateBounds" />
          </mxGeometry>
        </mxCell>
        <mxCell id="Hi8wWU0gHJnaGfF0Qscr-79" value="hora" style="shape=partialRectangle;connectable=0;fillColor=none;top=0;left=0;bottom=0;right=0;align=left;spacingLeft=6;overflow=hidden;whiteSpace=wrap;html=1;" vertex="1" parent="Hi8wWU0gHJnaGfF0Qscr-77">
          <mxGeometry x="30" width="150" height="30" as="geometry">
            <mxRectangle width="150" height="30" as="alternateBounds" />
          </mxGeometry>
        </mxCell>
        <mxCell id="Hi8wWU0gHJnaGfF0Qscr-83" value="Reserva" style="shape=table;startSize=30;container=1;collapsible=1;childLayout=tableLayout;fixedRows=1;rowLines=0;fontStyle=1;align=center;resizeLast=1;html=1;whiteSpace=wrap;" vertex="1" parent="1">
          <mxGeometry x="877" y="1802" width="180" height="150" as="geometry" />
        </mxCell>
        <mxCell id="Hi8wWU0gHJnaGfF0Qscr-96" value="" style="shape=tableRow;horizontal=0;startSize=0;swimlaneHead=0;swimlaneBody=0;fillColor=none;collapsible=0;dropTarget=0;points=[[0,0.5],[1,0.5]];portConstraint=eastwest;top=0;left=0;right=0;bottom=1;html=1;" vertex="1" parent="Hi8wWU0gHJnaGfF0Qscr-83">
          <mxGeometry y="30" width="180" height="30" as="geometry" />
        </mxCell>
        <mxCell id="Hi8wWU0gHJnaGfF0Qscr-97" value="PK" style="shape=partialRectangle;connectable=0;fillColor=none;top=0;left=0;bottom=0;right=0;fontStyle=1;overflow=hidden;html=1;whiteSpace=wrap;" vertex="1" parent="Hi8wWU0gHJnaGfF0Qscr-96">
          <mxGeometry width="60" height="30" as="geometry">
            <mxRectangle width="60" height="30" as="alternateBounds" />
          </mxGeometry>
        </mxCell>
        <mxCell id="Hi8wWU0gHJnaGfF0Qscr-98" value="id_reserva" style="shape=partialRectangle;connectable=0;fillColor=none;top=0;left=0;bottom=0;right=0;align=left;spacingLeft=6;fontStyle=5;overflow=hidden;html=1;whiteSpace=wrap;" vertex="1" parent="Hi8wWU0gHJnaGfF0Qscr-96">
          <mxGeometry x="60" width="120" height="30" as="geometry">
            <mxRectangle width="120" height="30" as="alternateBounds" />
          </mxGeometry>
        </mxCell>
        <mxCell id="Hi8wWU0gHJnaGfF0Qscr-84" value="" style="shape=tableRow;horizontal=0;startSize=0;swimlaneHead=0;swimlaneBody=0;fillColor=none;collapsible=0;dropTarget=0;points=[[0,0.5],[1,0.5]];portConstraint=eastwest;top=0;left=0;right=0;bottom=0;html=1;" vertex="1" parent="Hi8wWU0gHJnaGfF0Qscr-83">
          <mxGeometry y="60" width="180" height="30" as="geometry" />
        </mxCell>
        <mxCell id="Hi8wWU0gHJnaGfF0Qscr-85" value="FK" style="shape=partialRectangle;connectable=0;fillColor=none;top=0;left=0;bottom=0;right=0;fontStyle=1;overflow=hidden;html=1;whiteSpace=wrap;" vertex="1" parent="Hi8wWU0gHJnaGfF0Qscr-84">
          <mxGeometry width="60" height="30" as="geometry">
            <mxRectangle width="60" height="30" as="alternateBounds" />
          </mxGeometry>
        </mxCell>
        <mxCell id="Hi8wWU0gHJnaGfF0Qscr-86" value="id_pasajero" style="shape=partialRectangle;connectable=0;fillColor=none;top=0;left=0;bottom=0;right=0;align=left;spacingLeft=6;fontStyle=5;overflow=hidden;html=1;whiteSpace=wrap;" vertex="1" parent="Hi8wWU0gHJnaGfF0Qscr-84">
          <mxGeometry x="60" width="120" height="30" as="geometry">
            <mxRectangle width="120" height="30" as="alternateBounds" />
          </mxGeometry>
        </mxCell>
        <mxCell id="Hi8wWU0gHJnaGfF0Qscr-87" value="" style="shape=tableRow;horizontal=0;startSize=0;swimlaneHead=0;swimlaneBody=0;fillColor=none;collapsible=0;dropTarget=0;points=[[0,0.5],[1,0.5]];portConstraint=eastwest;top=0;left=0;right=0;bottom=1;html=1;" vertex="1" parent="Hi8wWU0gHJnaGfF0Qscr-83">
          <mxGeometry y="90" width="180" height="30" as="geometry" />
        </mxCell>
        <mxCell id="Hi8wWU0gHJnaGfF0Qscr-88" value="FK" style="shape=partialRectangle;connectable=0;fillColor=none;top=0;left=0;bottom=0;right=0;fontStyle=1;overflow=hidden;html=1;whiteSpace=wrap;" vertex="1" parent="Hi8wWU0gHJnaGfF0Qscr-87">
          <mxGeometry width="60" height="30" as="geometry">
            <mxRectangle width="60" height="30" as="alternateBounds" />
          </mxGeometry>
        </mxCell>
        <mxCell id="Hi8wWU0gHJnaGfF0Qscr-89" value="id_vuelo" style="shape=partialRectangle;connectable=0;fillColor=none;top=0;left=0;bottom=0;right=0;align=left;spacingLeft=6;fontStyle=5;overflow=hidden;html=1;whiteSpace=wrap;" vertex="1" parent="Hi8wWU0gHJnaGfF0Qscr-87">
          <mxGeometry x="60" width="120" height="30" as="geometry">
            <mxRectangle width="120" height="30" as="alternateBounds" />
          </mxGeometry>
        </mxCell>
        <mxCell id="Hi8wWU0gHJnaGfF0Qscr-90" value="" style="shape=tableRow;horizontal=0;startSize=0;swimlaneHead=0;swimlaneBody=0;fillColor=none;collapsible=0;dropTarget=0;points=[[0,0.5],[1,0.5]];portConstraint=eastwest;top=0;left=0;right=0;bottom=0;html=1;" vertex="1" parent="Hi8wWU0gHJnaGfF0Qscr-83">
          <mxGeometry y="120" width="180" height="30" as="geometry" />
        </mxCell>
        <mxCell id="Hi8wWU0gHJnaGfF0Qscr-91" value="" style="shape=partialRectangle;connectable=0;fillColor=none;top=0;left=0;bottom=0;right=0;editable=1;overflow=hidden;html=1;whiteSpace=wrap;" vertex="1" parent="Hi8wWU0gHJnaGfF0Qscr-90">
          <mxGeometry width="60" height="30" as="geometry">
            <mxRectangle width="60" height="30" as="alternateBounds" />
          </mxGeometry>
        </mxCell>
        <mxCell id="Hi8wWU0gHJnaGfF0Qscr-92" value="fecha_reserva" style="shape=partialRectangle;connectable=0;fillColor=none;top=0;left=0;bottom=0;right=0;align=left;spacingLeft=6;overflow=hidden;html=1;whiteSpace=wrap;" vertex="1" parent="Hi8wWU0gHJnaGfF0Qscr-90">
          <mxGeometry x="60" width="120" height="30" as="geometry">
            <mxRectangle width="120" height="30" as="alternateBounds" />
          </mxGeometry>
        </mxCell>
        <mxCell id="Hi8wWU0gHJnaGfF0Qscr-99" value="" style="edgeStyle=entityRelationEdgeStyle;fontSize=12;html=1;endArrow=ERoneToMany;rounded=0;" edge="1" parent="1" source="Hi8wWU0gHJnaGfF0Qscr-52" target="Hi8wWU0gHJnaGfF0Qscr-65">
          <mxGeometry width="100" height="100" relative="1" as="geometry">
            <mxPoint x="787" y="1722" as="sourcePoint" />
            <mxPoint x="887" y="1622" as="targetPoint" />
          </mxGeometry>
        </mxCell>
        <mxCell id="Hi8wWU0gHJnaGfF0Qscr-100" value="" style="edgeStyle=entityRelationEdgeStyle;fontSize=12;html=1;endArrow=ERoneToMany;startArrow=ERzeroToMany;rounded=0;" edge="1" parent="1" source="Hi8wWU0gHJnaGfF0Qscr-36" target="Hi8wWU0gHJnaGfF0Qscr-84">
          <mxGeometry width="100" height="100" relative="1" as="geometry">
            <mxPoint x="867" y="1832" as="sourcePoint" />
            <mxPoint x="967" y="1732" as="targetPoint" />
          </mxGeometry>
        </mxCell>
        <mxCell id="Hi8wWU0gHJnaGfF0Qscr-101" value="" style="edgeStyle=entityRelationEdgeStyle;fontSize=12;html=1;endArrow=ERzeroToMany;endFill=1;startArrow=ERzeroToMany;rounded=0;" edge="1" parent="1" source="Hi8wWU0gHJnaGfF0Qscr-96" target="Hi8wWU0gHJnaGfF0Qscr-80">
          <mxGeometry width="100" height="100" relative="1" as="geometry">
            <mxPoint x="867" y="1832" as="sourcePoint" />
            <mxPoint x="967" y="1732" as="targetPoint" />
          </mxGeometry>
        </mxCell>
        <mxCell id="Hi8wWU0gHJnaGfF0Qscr-102" value="Modelo Coceptual" style="text;strokeColor=none;fillColor=none;spacingLeft=4;spacingRight=4;overflow=hidden;rotatable=0;points=[[0,0.5],[1,0.5]];portConstraint=eastwest;fontSize=72;whiteSpace=wrap;html=1;" vertex="1" parent="1">
          <mxGeometry x="560" y="250" width="660" height="140" as="geometry" />
        </mxCell>
        <mxCell id="Hi8wWU0gHJnaGfF0Qscr-107" value="&lt;font style=&quot;font-size: 72px;&quot;&gt;Modelo Logico&lt;/font&gt;" style="text;strokeColor=none;fillColor=none;spacingLeft=4;spacingRight=4;overflow=hidden;rotatable=0;points=[[0,0.5],[1,0.5]];portConstraint=eastwest;fontSize=12;whiteSpace=wrap;html=1;" vertex="1" parent="1">
          <mxGeometry x="577" y="1320" width="520" height="102" as="geometry" />
        </mxCell>
      </root>
    </mxGraphModel>
  </diagram>
</mxfile>
